/* XPM */
static char *_29c502489d744d7e5630a12b27ce642tZOAQb62yMkwJOWw[] = {
/* columns rows colors chars-per-pixel */
"64 64 3 1 ",
"  c black",
". c #8B4900",
"X c #EDF017",
/* pixels */
"                                                              ..",
"                                                              ..",
"  XXXXXXXXXXXXXXXXXXXXXXXXXXXXXXXXXXXXXXXXXXXXXXXXXXXXXXXXXXXX..",
"  XXXXXXXXXXXXXXXXXXXXXXXXXXXXXXXXXXXXXXXXXXXXXXXXXXXXXXXXXXXX..",
"  XX   XXXXXXXXXXXXXXXXXXXXXXXXXXXXXXXXXXXXXXXXXXXXXXXXXX   XX..",
"  XX   XXXXXXXXXXXXXXXXXXXXXXXXXXXXXXXXXXXXXXXXXXXXXXXXXX   XX..",
"  XX   XXXXXXXXXXXXXXXXXXXXXXXXXXXXXXXXXXXXXXXXXXXXXXXXXX   XX..",
"  XXXXXXXXXXXXXXXXXXXXXXXXXXXXXXXXXXXXXXXXXXXXXXXXXXXXXXXXXXXX..",
"  XXXXXXXXXXXXXXXXXXXXXXXXXXXXXXXXXXXX..XXXXXXXXXXXXXXXXXXXXXX..",
"  XXXXXXXXXXXXXXXX..XXXXXXXXXXXXXXXXX  XXXXXXXXXXXXXXXXXXXXXXX..",
"  XXXXXXXXXXXXXXX......XXX .....X .XXXXXXX.X .XX .XX .XXXX .XX..",
"  XXXXXXXXXXXXXX .    .XXX .   .X .XXXXXX..X .XX .XX .XXXX .XX..",
"  XXXXXXXXXXXXXX .XXX .XXX .XX .X .XXXXXX..X .XX .XX .XXX ..XX..",
"  XXXXXXXXXXXXXX .XXX .XXX .XX .X .XXXXX. .X .XX .XX .XXX .XXX..",
"  XXXXXXXXXXXXXX .XXX .XXX .XX .X .XXXX.  .X .XX .XX .XXX .XXX..",
"  XXXXXXXXXXXXXX ......XXX .XX .X .XXXX.  .X .....XX .XXX .XXX..",
"  XXXXXXXXXXXXXX ........X .XX .X .XXX. X .X .   .XX .XXX  XXX..",
"  XXXXXXXXXXXXXX .      .X .XX .X .XX. XX .X .XXX.XX .XXX  .XX..",
"  XXXXXXXXXXXXXX .XXXXX .X .XX .X .X. XXX .X .XXX.XX ..... .XX..",
"  XXXXXXXXXXXXXX .XXXXX .X  XX  X .. XXXX .X .XXX..X .  .. .XX..",
"  XXXXXXXXXXXXXX ........X  ....X .. XXXX .X .XX  XX ....  .XX..",
"  XXXXXXXXXXXXXX        XX     XX   XXXXX  X  XXXXXX     X  XX..",
"  XXXXXXXXXXXXXXXXXXXXXXXXXXXXXXXXXXXXXXXXXXXXXXXXXXXXXXXXXXXX..",
"  XXXXXXXXXXXXXXXXXXXXXXXXXXXXXXXXXXXXXXXXXXXXXXXXXXXXXXXXXXXX..",
"  XXXXXXXXXXXXXXXXXXXXXXXXXXXXXXXXXXXXXXXXXXXXXXXXXXXXXXXXXXXX..",
"  XXXXXXXXXXXXXXXXXXXXXXXXXXXXXXXXXXXXXXXXXXXXXXXXXXXXXXXXXXXX..",
"  XXXXXXXXXXXXXXXXXXXXXXXXXXXXXXXXXXXXXXXXXXXXXXXXXXXXXXXXXXXX..",
"  XXXX    XXX XXXXXXX    XXXXX     XXXX      XXXXXXXXXXXXXXXXX..",
"  XXX ....XX .XXX .XX .....XX ......XX  .....XX .....X ....XXX..",
"  XX ..     ..XXX .XX .     X .     XX ..XXXXXX .XXXX ..XXXX X..",
"  XX .XXXXX .XXXX .XX .XXXXXX .XXXXXXX .XXXXXXX .XXXX .XXXX  X..",
"  XX .XXXXX .XXXX .XX .XXXXXX .XXXXXXX .    XXX .XXXX ..XXX  X..",
"  XX .XXXXX .XXXX .XX .XXXXXX .XXXXXXX . ...XXX ..XXX  .XXX  X..",
"  XX .XXXXX ..XXX ..X .XXXXXX .XXXXXXX ...X.XXX  ...XX .XXX  X..",
"  XX .....X  .XXX  .X .XXXXXX  .XXXXXX  .XXXXXXX   .XX ..XXXXX..",
"  XX     .X  .XXXX .X .XXXXXXX .XXXXXXX .XXXXXXXXX .XX  ..XXXX..",
"  XXXXXX .X ..XXX  .X .XXXXXXX .XXXXXXX .XXXXXXXX  .XXXX .XXXX..",
"  XXXXX  .X .XXXX ..X ..XXXXXX ..XXXXXX .    XX   ..X   ..XXXX..",
"  XX    ..X .......XX  .....XXX ......X ......X ...X ....XXXXX..",
"  X ..... X       XXXX      XXXX      X       X   X ..   XXXXX..",
"  X      XXXXXXXXXXXXXXXXXXXXXXXXXXXXXXXXXXXXXXXXXX    XXXXXXX..",
"  XXXXXXXXXXXXXXXXXXXXXXXXXXXXXXXXXXXXXXXXXXXXXXXXXXX .XXXXXXX..",
"  XXXXXXXXXXXXXXXXXXXXXXXXXXXXXXXXXXXXXXXXXXXXXXXXXXX ..XXXXXX..",
"  XXXXXXXXXXXXXXXXXXXXXXXXXXXXXXXXXXXXXXXXXXXXXXXXXX  ...XXXXX..",
"  XXXXXXXXXXXXXXXXXXXXXXXXXXXXXXXXXXXXXXXXXXXXXXXXXX  .X.XXXXX..",
"  XXXXXXXXXXXXXX XXXXXXXXXXXXXXXXXXXXXXXXXXXXXXXXXXX  .X .XXXX..",
"  XXXXXXXXXXXXX ..XXXX .XXXXXXXX .......XXXXXXXXXXXX ..  ..XXX..",
"  XXXXXXXXXXXX .X.XXXX .XX..XXXX .XX.XX.XXXXXXXXXXXX .......XX..",
"  XXXXXXXXXXXX .X.XXX  ....X.XXX .XX.XX.XXXXXXXXXXXX .    ..XX..",
"  XXXXXXXXXXX .XX.XXX  ..   .XXX .  .  .XXXXXXXXXXXX .X   X.XX..",
"  XXXXXXXXXXX .XXX.XXX    X  .XX .......XXXXXXXXXXXX  XXXXX XX..",
"  XXXXXXXXXXX .XXX.XXXXXXXXX .XX    .XXXXXXXXXXXXXXXXXXXXXXXXX..",
"  XXXXXXXXXXX .XXXX.XXXXXXXX .XXXXX .XXXXXXXXXXXXXXXXXXXXXXXXX..",
"  XXXXXXXXXXX ......XXXXXXXX .XXXXX .XXXXXXXXXXXXXXXXXXXXXXXXX..",
"  XXXXXXXXXXX . X X..XXXXXXX .XXXXX .XXXXXXXXXXXXXXXXXXXXXXXXX..",
"  XXXXXXXXXXX .XXXXX.XXXXXXX  .XXX  .XXXXXXXXXXXXXXXXXXXXXXXXX..",
"  XXXXXXXXXX .  XXXX.XXXXXX  .XXXX ..XXXXXXXXXXXXXXXXXXXXXXXXX..",
"  XX   XXXXX . XXXXX.XX    ...XXXX . XXXXXXXXXXXXXXXXXXXX   XX..",
"  XX   XXXXXXXXXXXXXXXXXXXXXXXXXXX   XXXXXXXXXXXXXXXXXXXX   XX..",
"  XX   XXXXXXXXXXXXXXXXXXXXXXXXXXXXXXXXXXXXXXXXXXXXXXXXXX   XX..",
"  XXXXXXXXXXXXXXXXXXXXXXXXXXXXXXXXXXXXXXXXXXXXXXXXXXXXXXXXXXXX..",
"  XXXXXXXXXXXXXXXXXXXXXXXXXXXXXXXXXXXXXXXXXXXXXXXXXXXXXXXXXXXX..",
"  ..............................................................",
"  .............................................................."
};
