/* XPM */
static char *_9066d8e95f14c51a5283eaa1aac0fc4B0fzn8MvlU9sbek6[] = {
/* columns rows colors chars-per-pixel */
"64 64 7 1 ",
"  c black",
". c #46470C",
"X c red",
"o c #FF0808",
"O c #FFC108",
"+ c #B0974C",
"@ c white",
/* pixels */
"++OOOOOOOOOOOOOOOOOOOOOOOOOOOOOOOOOOOOOOOOOOOOOOOOOOOOOOOOOOOO++",
"O++++OOOOOOOOOOOO                              OOOOOOOOOOOO++++O",
"  OO++OOO        ..............................        OOO++OO  ",
" OOOO+OO OOO.............OOOOOO..OOOOOO.............OOO OO+OOOO ",
" OOOO+OO O.........OOOOOOO..OOO..OOO..OOOOOOO.........O OO+OOOO ",
" OOOO+OO O........OO........................OO........O OO+OOOO ",
" OOOO+OO .........O..                      ..O......... OO+OOOO ",
" OOOO+OO ....O....O.. XXXXXXXXX  XXXXXXXXX ..O....O.... OO+OOOO ",
" OOOO+OO ....OO...O.. XXXXXXXXXXXXXXXXXXXX ..O...OO.... OO+OOOO ",
" OOOO+OO .....O...O.. XXXXXXXXXXXXXXXXXXXX ..O...O..... OO+OOOO ",
" OOOO+OO ....OO..O... XX             XXXXX ...O..OO.... OO+OOOO ",
" OOOO+OO ....O...O... XX ooooooooooo XXXXX ...O...O.... OO+OOOO ",
" OOOO+OO ...O....O... XX ooooooooooo XXXXX ...O....O... OO+OOOO ",
" OOOO+O ....O....O... XX ooooooooooo XXXXX ...O....O.... O+OOOO ",
" OOOO+O ....OO..OO... XX        oooo XXXXX ...OO..OO.... O+OOOO ",
" OOOO+O .....O..O.... XX XXXXXX      XXXXX ....O..O..... O+OOOO ",
" OOOO+O .....O..O.... XX XXXXXXXXXXXXXXXXX ....O..O..... O+OOOO ",
" OOOO+O .....O..O.... XX XXXXXXXXXXXXXXXXX ....O..O..... O+OOOO ",
" OOOO+O ....OO..O.... XX XXXXXXXXXXXXXXXXX ....O..OO.... O+OOOO ",
" OOOO+O ....O..OO.... XX XXXXXXXXXXXXXXXXX ....OO..O.... O+OOOO ",
". OO+OO ....O..O..... XX XXXXXXXXXXXXXXXXX .....O..O.... OO+OO .",
". OO+OO ....O..O....  XXXXXX         XXXXX  ....O..O.... OO+OO .",
". OO+OO .....O.O.... XXXXXXXXXXXXXXX XXXXXX ....O.O..... OO+OO .",
". OO+OO .....O.O.... XXXXXXXXXXXXXXX  XXXXX ....O.O..... OO+OO .",
". OO+OO .....O.O.... XXXXXXX        X XXXXX ....O.O..... OO+OO .",
". OO+OO ....O..O.... XXXXXXXXXXXXXXXX XXXXX ....O..O.... OO+OO .",
". OO+OO ...OO..O.... XXXXXXXXXXXXXXXX XXXXX ....O..OO... OO+OO .",
" OOO+OO ...O...O.... XXXXXXXXXXXXXXXX XXXXX ....O...O... OO+OOO ",
" OOO+OO ....O..O.... XXXXXX           XXXXX ....O..O.... OO+OOO ",
" OOO+OO ....O..O.... XXXXXXXXXXXXXXXXXXXXXX ....O..O.... OO+OOO ",
" OOO+OO ....O..O.... XXXXXXX        XXXXXXX ....O..O.... OO+OOO ",
" OOO+OO ...O...O....  XXXXXX XXXXX  XXXXXX  ....O...O... OO+OOO ",
" OOO+OO ...O...O..... XXXXX  XXXXX   XXXXX .....O...O... OO+OOO ",
" OOO+OO ....O..O.....  XXXXX XXXXX XXXXXX  .....O..O.... OO+OOO ",
" OOO+OO ....O..O......  XXXX XXXXX XXXXX  ......O..O.... OO+OOO ",
" OOO+OO ...OO..O.......  XXX XXXXX XXXX  .......O..OO... OO+OOO ",
"OOOO+OO ..OO...O........  XX XXXXX XXX  ........O...OO.. OO+OOOO",
"OOOO+OO ..O....O.........  XXXXXXXXXX  .........O....O.. OO+OOOO",
"OOO++OO ...O...O..........  XXXXXXXX  ..........O...O... OO++OOO",
"OOO+OOO ...O...O............  XXXX  ............O...O... OOO+OOO",
"OOO+OOO ..OO...O.............  XX  .............O...OO.. OOO+OOO",
"OOO+OOO ..O....OO..............  ..............OO....O.. OOO+OOO",
"OO++OOO ..OO....O..............................O....OO.. OOO++OO",
"OO+OOOO ...O....OO............................OO....O... OOOO+OO",
"O++OOOO .........OO..........................OO......... OOOO++O",
"++OOOOO ..........O............OO............O.......... OOOOO++",
"+OOOOOO ..........OO...........OO...........OO.......... OOOOOO+",
"OOOOOOO  ..........O...........OO...........O..........  OOOOOOO",
"OOOOOOOO ...........O......O..OOOO..O......O........... OOOOOOOO",
"OOOOOOOO ...........OO.....OOOO..OOOO.....OO........... OOOOOOOO",
"   OOOOOO ...........OO..................OO........... OOOOOO   ",
"ooo  OOOO   ..........OOO..............OOO..........   OOOO  ooo",
"@@@oo   OOO      .......OO.....OO.....OO.......      OOO   oo@@@",
"@@@@@ooo  OOOOOOO    ....OOOO..OO..OOOO....    OOOOOOO  ooo@@@@@",
"@@@@@@@@oo   OOOOOOO    ....OOOOOOOO....    OOOOOOO   oo@@@@@@@@",
"@@@@@@@@@@oo    OOOOOOO   ............   OOOOOOO    oo@@@@@@@@@@",
"@@@@@@@@@@@@ooo    OOOOOO    ......    OOOOOO    ooo@@@@@@@@@@@@",
"@OOOOO@O@@@O@O@ooo    OOOOOO        OOOOOO    ooo@O@O@@@O@OOOOO@",
"@O@@@@@O@@@O@O@@@@oooo    OOOOOOOOOOOO    oooo@@@@O@O@@@O@@@@@O@",
"@O@@@@@O@@@O@O@@@@@@@@oooo            oooo@@@@@@@@O@O@@@O@@@@@O@",
"@O@@@@@O@@@O@OOOO@@@OOO@@@oooo    oooo@@@OOO@@@OOOO@O@@@O@@@@@O@",
"@O@@@@@OO@@O@@O@OO@@@OO@OOOO@@oooo@@OOOO@OO@@@OO@O@@O@@OO@@@@@O@",
"@OOOOOO@OOOO@@OOOO@@@@O@O@@O@@@@@@@@O@@O@O@@@@OOOO@@OOOO@OOOOOO@",
"@@@@@@@@@@@@@@@@@@@OOOO@OOOO@@@@@@@@OOOO@OOOO@@@@@@@@@@@@@@@@@@@"
};
