/* XPM */
static char *feee755e824d4967896fb819632df176jHUPO7KirG7kQDVy[] = {
/* columns rows colors chars-per-pixel */
"64 64 3 1 ",
"  c black",
". c #8B6200",
"X c #F9F207",
/* pixels */
"                                                              ..",
"                                                              ..",
"  XXXXXXXXXXXXXXXXXXXXXXXXXXXXXXXXXXXXXXXXXXXXXXXXXXXXXXXXXXXX..",
"  XXXXXXXXXXXXXXXXXXXXXXXXXXXXXXXXXXXXXXXXXXXXXXXXXXXXXXXXXXXX..",
"  XX   XXXXXXXXXXXXXXXXXXXXXXXXXXXXXXXXXXXXXXXXXXXXXXXXXX   XX..",
"  XX   XXXXXXXXXXXXXXXXXXXXXXXXXXXXXXXXXXXXXXXXXXXXXXXXXX   XX..",
"  XX   XXXXXXXXXXXXXXXXXXXXXXXXXXXXXXXXXXXXXXXXXXXXXXXXXX   XX..",
"  XXXXXXXXXXXXXXXXXXXXXXXXXXXXXXXXXXXXXXXXXXXXXXXXXXXXXXXXXXXX..",
"  XXXXXXXXXXXXXXXXXXXXXXXXXXXXXXXXXXXXXXXXXXXXXXXXXXXXXXXXXXXX..",
"  XXXXXXXXXXXXXXXXXXXXXXXXXXXXXXXXXXXXXXXXXXXXXXXXXXXXXXXXXXXX..",
"  XXXXXXXXXXXXXXXX.................XXXXXXXXXXXXXXXXXXXXXXXXXXX..",
"  XXXXXXXXXXXXXXXX.................XXXXXXXXXXXXXXXXXXXXXXXXXXX..",
"  XXXXXXXXXXXXXXXX.................XXXXXXXXXXXXXXXXXXXXXXXXXXX..",
"  XXXXXXXXXXXXX......           ......XXXXXXXXXXXXXXXXXXXXXXXX..",
"  XXXXXXXXXXXXX......           ......XXXXXXXXXXXXXXXXXXXXXXXX..",
"  XXXXXXXXXXXXX.....             .....XXXXXXXXXXXXXXXXXXXXXXXX..",
"  XXXXXXXXXXXXX.....    XXXXXXXXX.....   XXXXXXXXXXXXXXXXXXXXX..",
"  XXXXXXXXXXXXX.....   XXXXXXXXXX.....   XXXXXXXXXXXXXXXXXXXXX..",
"  XXXXXXXXXXXXX.....   XXXXXXXXXX.....   XXXXXXXXXXXXXXXXXXXXX..",
"  XXXXXXXXXXXXX.....   XXXXXXXXXX.....   XXXXXXXXXXXXXXXXXXXXX..",
"  XXXXXXXXXXXXX.....    XXXXXXXXX.....   XXXXXXXXXXXXXXXXXXXXX..",
"  XXXXXXXXXXXXX......   XXXXXXXXX.....   XXXXXXXXXXXXXXXXXXXXX..",
"  XXXXXXXXXXXXX......   XXXXXXXXX.....   XXXXXXXXXXXXXXXXXXXXX..",
"  XXXXXXXXXXXXX......   XXXXXXXXX.....   XXXXXXXXXXXXXXXXXXXXX..",
"  XXXXXXXXXXXXX......   XXXXXXXXX.....   XXXXXXXXXXXXXXXXXXXXX..",
"  XXXXXXXXXXXXX.....    XXXXXXXXX.....   XXXXXXXXXXXXXXXXXXXXX..",
"  XXXXXXXXXXXXXXX       XXXXX.........   XXXXXXXXXXXXXXXXXXXXX..",
"  XXXXXXXXXXXXXXX       XXXXX.........   XXXXXXXXXXXXXXXXXXXXX..",
"  XXXXXXXXXXXXXXX       XXXXX.........   XXXXXXXXXXXXXXXXXXXXX..",
"  XXXXXXXXXXXXXXXXXXXXXXXXXXX.........   XXXXXXXXXXXXXXXXXXXXX..",
"  XXXXXXXXXXXXXXXXXXXXXX..............   XXXXXXXXXXXXXXXXXXXXX..",
"  XXXXXXXXXXXXXXXXXXXXXX........         XXXXXXXXXXXXXXXXXXXXX..",
"  XXXXXXXXXXXXXXXXXXXXXX........         XXXXXXXXXXXXXXXXXXXXX..",
"  XXXXXXXXXXXXXXXXXXXXXX........         XXXXXXXXXXXXXXXXXXXXX..",
"  XXXXXXXXXXXXXXXXXXXXXX........   XXXXXXXXXXXXXXXXXXXXXXXXXXX..",
"  XXXXXXXXXXXXXXXXXXXXXX........   XXXXXXXXXXXXXXXXXXXXXXXXXXX..",
"  XXXXXXXXXXXXXXXXXXXXXX........   XXXXXXXXXXXXXXXXXXXXXXXXXXX..",
"  XXXXXXXXXXXXXXXXXXXXXX........   XXXXXXXXXXXXXXXXXXXXXXXXXXX..",
"  XXXXXXXXXXXXXXXXXXXXXXXXX        XXXXXXXXXXXXXXXXXXXXXXXXXXX..",
"  XXXXXXXXXXXXXXXXXXXXXXXXX        XXXXXXXXXXXXXXXXXXXXXXXXXXX..",
"  XXXXXXXXXXXXXXXXXXXXXXXXX        XXXXXXXXXXXXXXXXXXXXXXXXXXX..",
"  XXXXXXXXXXXXXXXXXXXXXXXXXXXXXXXXXXXXXXXXXXXXXXXXXXXXXXXXXXXX..",
"  XXXXXXXXXXXXXXXXXXXXXXXXXXXXXXXXXXXXXXXXXXXXXXXXXXXXXXXXXXXX..",
"  XXXXXXXXXXXXXXXXXXXXXX........XXXXXXXXXXXXXXXXXXXXXXXXXXXXXX..",
"  XXXXXXXXXXXXXXXXXXXXXX........XXXXXXXXXXXXXXXXXXXXXXXXXXXXXX..",
"  XXXXXXXXXXXXXXXXXXXXXX........XXXXXXXXXXXXXXXXXXXXXXXXXXXXXX..",
"  XXXXXXXXXXXXXXXXXXXXXX........   XXXXXX   X XXXX X XXX XXXXX..",
"  XXXXXXXXXXXXXXXXXXXXXX........   XXXXX XXXX XXXX X XXX XXXXX..",
"  XXXXXXXXXXXXXXXXXXXXXX........   XXXXX XXXX XXXX X XXX XXXXX..",
"  XXXXXXXXXXXXXXXXXXXXXX........   XXXXX XXXX    X X XXX XXXXX..",
"  XXXXXXXXXXXXXXXXXXXXXX........   XXXXX XXXXX X X X XXX XXXXX..",
"  XXXXXXXXXXXXXXXXXXXXXXXXXX       XXXXX  XXX  X X X XXX XXXXX..",
"  XXXXXXXXXXXXXXXXXXXXXXXXXX       XXXXXX   X  X X X   X   XXX..",
"  XXXXXXXXXXXXXXXXXXXXXXXXXX       XXXXXXXXXXXXXXXXXXXXXXXXXXX..",
"  XXXXXXXXXXXXXXXXXXXXXXXXXXXXXXXXXXXXXXXXXXXXXXXXXXXXXXXXXXXX..",
"  XXXXXXXXXXXXXXXXXXXXXXXXXXXXXXXXXXXXXXX     X   X XX  XXXXXX..",
"  XXXXXXXXXXXXXXXXXXXXXXXXXXXXXXXXXXXXXXXXX XXX XXX  X XXXXXXX..",
"  XX   XXXXXXXXXXXXXXXXXXXXXXXXXXXXXXXXXXXX XXX  XXXX XXX   XX..",
"  XX   XXXXXXXXXXXXXXXXXXXXXXXXXXXXXXXXXXXX XXX XXXX X  X   XX..",
"  XX   XXXXXXXXXXXXXXXXXXXXXXXXXXXXXXXXXXXX XXX   X  XX X   XX..",
"  XXXXXXXXXXXXXXXXXXXXXXXXXXXXXXXXXXXXXXXXXXXXXXXXXXXXXXXXXXXX..",
"  XXXXXXXXXXXXXXXXXXXXXXXXXXXXXXXXXXXXXXXXXXXXXXXXXXXXXXXXXXXX..",
"  ..............................................................",
"  .............................................................."
};
